<mxfile host="app.diagrams.net" agent="Mozilla/5.0 (Macintosh; Intel Mac OS X 10_15_7) AppleWebKit/537.36 (KHTML, like Gecko) Chrome/129.0.0.0 Safari/537.36" border="50" scale="3" compressed="false" locked="false" version="24.7.17">
  <diagram name="Blank" id="YmL12bMKpDGza6XwsDPr">
    <mxGraphModel dx="984" dy="1493" grid="0" gridSize="10" guides="1" tooltips="1" connect="1" arrows="1" fold="1" page="0" pageScale="1" pageWidth="827" pageHeight="1169" background="none" math="1" shadow="0">
      <root>
        <mxCell id="X5NqExCQtvZxIxQ7pmgY-0" />
        <mxCell id="1" parent="X5NqExCQtvZxIxQ7pmgY-0" />
        <mxCell id="HKo8jDWpPuZn62c8y4QS-10" style="edgeStyle=orthogonalEdgeStyle;rounded=0;orthogonalLoop=1;jettySize=auto;html=1;exitX=1;exitY=0.5;exitDx=0;exitDy=0;entryX=0;entryY=0.5;entryDx=0;entryDy=0;" edge="1" parent="1" source="HKo8jDWpPuZn62c8y4QS-4" target="HKo8jDWpPuZn62c8y4QS-5">
          <mxGeometry relative="1" as="geometry" />
        </mxCell>
        <mxCell id="HKo8jDWpPuZn62c8y4QS-4" value="&lt;font style=&quot;font-size: 14px;&quot;&gt;需求收集和分析&lt;/font&gt;" style="rounded=1;whiteSpace=wrap;html=1;absoluteArcSize=1;arcSize=14;strokeWidth=2;" vertex="1" parent="1">
          <mxGeometry x="1" y="-624" width="135" height="50" as="geometry" />
        </mxCell>
        <mxCell id="HKo8jDWpPuZn62c8y4QS-11" style="edgeStyle=orthogonalEdgeStyle;rounded=0;orthogonalLoop=1;jettySize=auto;html=1;exitX=1;exitY=0.5;exitDx=0;exitDy=0;entryX=0;entryY=0.5;entryDx=0;entryDy=0;" edge="1" parent="1" source="HKo8jDWpPuZn62c8y4QS-5" target="HKo8jDWpPuZn62c8y4QS-6">
          <mxGeometry relative="1" as="geometry" />
        </mxCell>
        <mxCell id="HKo8jDWpPuZn62c8y4QS-5" value="&lt;span style=&quot;font-size: 14px;&quot;&gt;场景识别和定义&lt;/span&gt;" style="rounded=1;whiteSpace=wrap;html=1;absoluteArcSize=1;arcSize=14;strokeWidth=2;" vertex="1" parent="1">
          <mxGeometry x="201" y="-624" width="135" height="50" as="geometry" />
        </mxCell>
        <mxCell id="HKo8jDWpPuZn62c8y4QS-12" style="edgeStyle=orthogonalEdgeStyle;rounded=0;orthogonalLoop=1;jettySize=auto;html=1;exitX=1;exitY=0.5;exitDx=0;exitDy=0;entryX=0;entryY=0.5;entryDx=0;entryDy=0;" edge="1" parent="1" source="HKo8jDWpPuZn62c8y4QS-6" target="HKo8jDWpPuZn62c8y4QS-7">
          <mxGeometry relative="1" as="geometry" />
        </mxCell>
        <mxCell id="HKo8jDWpPuZn62c8y4QS-6" value="&lt;span style=&quot;font-size: 14px;&quot;&gt;场景建模&lt;/span&gt;" style="rounded=1;whiteSpace=wrap;html=1;absoluteArcSize=1;arcSize=14;strokeWidth=2;" vertex="1" parent="1">
          <mxGeometry x="388" y="-624" width="135" height="50" as="geometry" />
        </mxCell>
        <mxCell id="HKo8jDWpPuZn62c8y4QS-13" style="edgeStyle=orthogonalEdgeStyle;rounded=0;orthogonalLoop=1;jettySize=auto;html=1;exitX=0.5;exitY=1;exitDx=0;exitDy=0;" edge="1" parent="1" source="HKo8jDWpPuZn62c8y4QS-7">
          <mxGeometry relative="1" as="geometry">
            <mxPoint x="649" y="-536" as="targetPoint" />
          </mxGeometry>
        </mxCell>
        <mxCell id="HKo8jDWpPuZn62c8y4QS-7" value="&lt;span style=&quot;font-size: 14px;&quot;&gt;场景的验证&lt;/span&gt;" style="rounded=1;whiteSpace=wrap;html=1;absoluteArcSize=1;arcSize=14;strokeWidth=2;" vertex="1" parent="1">
          <mxGeometry x="581" y="-624" width="135" height="50" as="geometry" />
        </mxCell>
        <mxCell id="HKo8jDWpPuZn62c8y4QS-14" style="edgeStyle=orthogonalEdgeStyle;rounded=0;orthogonalLoop=1;jettySize=auto;html=1;exitX=0.5;exitY=1;exitDx=0;exitDy=0;" edge="1" parent="1" source="HKo8jDWpPuZn62c8y4QS-8">
          <mxGeometry relative="1" as="geometry">
            <mxPoint x="649" y="-452" as="targetPoint" />
          </mxGeometry>
        </mxCell>
        <mxCell id="HKo8jDWpPuZn62c8y4QS-8" value="&lt;span style=&quot;font-size: 14px;&quot;&gt;场景的实现和测试&lt;/span&gt;" style="rounded=1;whiteSpace=wrap;html=1;absoluteArcSize=1;arcSize=14;strokeWidth=2;" vertex="1" parent="1">
          <mxGeometry x="581" y="-534" width="135" height="50" as="geometry" />
        </mxCell>
        <mxCell id="HKo8jDWpPuZn62c8y4QS-9" value="&lt;span style=&quot;font-size: 14px;&quot;&gt;场景的维护和更新&lt;/span&gt;" style="rounded=1;whiteSpace=wrap;html=1;absoluteArcSize=1;arcSize=14;strokeWidth=2;" vertex="1" parent="1">
          <mxGeometry x="586" y="-450" width="135" height="50" as="geometry" />
        </mxCell>
        <mxCell id="HKo8jDWpPuZn62c8y4QS-15" value="" style="strokeWidth=2;html=1;shape=mxgraph.flowchart.annotation_2;align=left;labelPosition=right;pointerEvents=1;rotation=90;" vertex="1" parent="1">
          <mxGeometry x="430.5" y="-599" width="50" height="100" as="geometry" />
        </mxCell>
        <mxCell id="HKo8jDWpPuZn62c8y4QS-17" value="&lt;font style=&quot;font-size: 14px;&quot;&gt;创建场景图&lt;/font&gt;" style="strokeWidth=2;html=1;shape=mxgraph.flowchart.start_2;whiteSpace=wrap;" vertex="1" parent="1">
          <mxGeometry x="362" y="-524" width="85" height="80" as="geometry" />
        </mxCell>
        <mxCell id="HKo8jDWpPuZn62c8y4QS-18" value="&lt;span style=&quot;font-size: 14px;&quot;&gt;编写场景&lt;/span&gt;&lt;div&gt;&lt;span style=&quot;font-size: 14px;&quot;&gt;脚本&lt;/span&gt;&lt;/div&gt;" style="strokeWidth=2;html=1;shape=mxgraph.flowchart.start_2;whiteSpace=wrap;" vertex="1" parent="1">
          <mxGeometry x="464" y="-524" width="85" height="80" as="geometry" />
        </mxCell>
      </root>
    </mxGraphModel>
  </diagram>
</mxfile>
